<svg id="visual" viewBox="0 0 900 600" width="900" height="600" xmlns="http://www.w3.org/2000/svg" xmlns:xlink="http://www.w3.org/1999/xlink" version="1.1"><rect x="0" y="0" width="900" height="600" fill="#0d0d0d"></rect><g fill="#1e1d1d"><circle r="27" cx="297" cy="183"></circle><circle r="2" cx="650" cy="345"></circle><circle r="1" cx="559" cy="113"></circle><circle r="18" cx="125" cy="128"></circle><circle r="16" cx="138" cy="483"></circle><circle r="4" cx="105" cy="217"></circle><circle r="1" cx="93" cy="435"></circle><circle r="15" cx="580" cy="402"></circle><circle r="4" cx="716" cy="316"></circle><circle r="21" cx="576" cy="292"></circle><circle r="15" cx="689" cy="24"></circle><circle r="22" cx="250" cy="68"></circle><circle r="2" cx="308" cy="24"></circle><circle r="17" cx="668" cy="536"></circle><circle r="15" cx="374" cy="83"></circle><circle r="21" cx="754" cy="353"></circle><circle r="2" cx="851" cy="114"></circle><circle r="4" cx="345" cy="342"></circle><circle r="20" cx="408" cy="250"></circle><circle r="1" cx="270" cy="450"></circle><circle r="7" cx="23" cy="352"></circle><circle r="24" cx="771" cy="51"></circle><circle r="8" cx="123" cy="58"></circle><circle r="3" cx="481" cy="472"></circle><circle r="7" cx="705" cy="426"></circle><circle r="8" cx="317" cy="263"></circle><circle r="4" cx="482" cy="237"></circle><circle r="14" cx="51" cy="134"></circle><circle r="13" cx="449" cy="540"></circle><circle r="4" cx="177" cy="323"></circle><circle r="6" cx="850" cy="448"></circle><circle r="16" cx="832" cy="395"></circle><circle r="11" cx="601" cy="516"></circle><circle r="4" cx="462" cy="318"></circle><circle r="16" cx="787" cy="534"></circle><circle r="8" cx="899" cy="587"></circle><circle r="14" cx="486" cy="585"></circle><circle r="14" cx="864" cy="343"></circle><circle r="18" cx="670" cy="595"></circle><circle r="20" cx="632" cy="226"></circle><circle r="9" cx="5" cy="243"></circle><circle r="17" cx="826" cy="177"></circle><circle r="24" cx="838" cy="239"></circle><circle r="19" cx="289" cy="593"></circle><circle r="22" cx="562" cy="552"></circle><circle r="8" cx="751" cy="162"></circle><circle r="11" cx="897" cy="220"></circle><circle r="16" cx="774" cy="108"></circle><circle r="9" cx="39" cy="479"></circle><circle r="13" cx="393" cy="313"></circle><circle r="4" cx="15" cy="561"></circle><circle r="3" cx="293" cy="380"></circle><circle r="14" cx="474" cy="374"></circle><circle r="9" cx="172" cy="262"></circle><circle r="24" cx="314" cy="106"></circle><circle r="9" cx="181" cy="81"></circle><circle r="11" cx="89" cy="380"></circle><circle r="11" cx="370" cy="480"></circle><circle r="8" cx="237" cy="217"></circle><circle r="21" cx="245" cy="338"></circle><circle r="5" cx="841" cy="532"></circle><circle r="8" cx="360" cy="394"></circle><circle r="6" cx="686" cy="247"></circle><circle r="12" cx="158" cy="550"></circle><circle r="21" cx="417" cy="391"></circle><circle r="13" cx="514" cy="22"></circle><circle r="3" cx="798" cy="290"></circle><circle r="24" cx="679" cy="92"></circle><circle r="15" cx="387" cy="545"></circle><circle r="21" cx="159" cy="390"></circle><circle r="4" cx="562" cy="47"></circle><circle r="14" cx="535" cy="454"></circle><circle r="8" cx="263" cy="543"></circle><circle r="17" cx="439" cy="124"></circle><circle r="24" cx="725" cy="523"></circle><circle r="9" cx="88" cy="316"></circle><circle r="18" cx="892" cy="510"></circle><circle r="25" cx="774" cy="235"></circle><circle r="6" cx="488" cy="179"></circle><circle r="15" cx="796" cy="477"></circle><circle r="13" cx="640" cy="416"></circle><circle r="15" cx="157" cy="13"></circle><circle r="11" cx="192" cy="162"></circle><circle r="9" cx="54" cy="78"></circle><circle r="5" cx="834" cy="13"></circle><circle r="16" cx="516" cy="279"></circle><circle r="16" cx="617" cy="68"></circle><circle r="14" cx="361" cy="17"></circle><circle r="5" cx="367" cy="201"></circle><circle r="6" cx="70" cy="542"></circle><circle r="4" cx="225" cy="10"></circle><circle r="14" cx="747" cy="581"></circle><circle r="4" cx="692" cy="176"></circle><circle r="3" cx="320" cy="516"></circle><circle r="3" cx="434" cy="58"></circle><circle r="25" cx="189" cy="595"></circle><circle r="19" cx="618" cy="169"></circle><circle r="8" cx="248" cy="273"></circle><circle r="7" cx="561" cy="348"></circle><circle r="1" cx="12" cy="41"></circle><circle r="25" cx="605" cy="458"></circle><circle r="22" cx="616" cy="568"></circle><circle r="2" cx="238" cy="404"></circle><circle r="24" cx="887" cy="293"></circle><circle r="10" cx="428" cy="458"></circle><circle r="24" cx="343" cy="580"></circle><circle r="22" cx="263" cy="136"></circle><circle r="20" cx="823" cy="589"></circle><circle r="20" cx="217" cy="502"></circle><circle r="9" cx="883" cy="42"></circle><circle r="8" cx="642" cy="283"></circle><circle r="15" cx="614" cy="8"></circle><circle r="24" cx="5" cy="296"></circle><circle r="9" cx="109" cy="596"></circle><circle r="1" cx="897" cy="150"></circle><circle r="20" cx="54" cy="2"></circle><circle r="14" cx="420" cy="177"></circle><circle r="8" cx="23" cy="179"></circle><circle r="10" cx="770" cy="410"></circle><circle r="11" cx="519" cy="510"></circle><circle r="6" cx="414" cy="5"></circle><circle r="4" cx="525" cy="398"></circle><circle r="11" cx="664" cy="478"></circle><circle r="12" cx="5" cy="403"></circle><circle r="15" cx="2" cy="108"></circle><circle r="25" cx="501" cy="75"></circle><circle r="21" cx="542" cy="207"></circle><circle r="5" cx="370" cy="146"></circle><circle r="15" cx="893" cy="405"></circle><circle r="25" cx="404" cy="598"></circle><circle r="25" cx="54" cy="266"></circle><circle r="12" cx="296" cy="320"></circle><circle r="23" cx="54" cy="598"></circle><circle r="21" cx="200" cy="443"></circle><circle r="21" cx="327" cy="448"></circle><circle r="21" cx="746" cy="3"></circle><circle r="12" cx="158" cy="205"></circle><circle r="10" cx="808" cy="347"></circle></g></svg>