<svg id="visual" viewBox="0 0 900 600" width="900" height="600" xmlns="http://www.w3.org/2000/svg" xmlns:xlink="http://www.w3.org/1999/xlink" version="1.1"><rect x="0" y="0" width="900" height="600" fill="#0d0d0d"></rect><path d="M0 191L13.7 175.7C27.3 160.3 54.7 129.7 82 132.5C109.3 135.3 136.7 171.7 163.8 204C191 236.3 218 264.7 245.2 245.2C272.3 225.7 299.7 158.3 327 145.2C354.3 132 381.7 173 409 205.2C436.3 237.3 463.7 260.7 491 242.2C518.3 223.7 545.7 163.3 573 159.3C600.3 155.3 627.7 207.7 654.8 227.2C682 246.7 709 233.3 736.2 212.3C763.3 191.3 790.7 162.7 818 173.2C845.3 183.7 872.7 233.3 886.3 258.2L900 283L900 601L886.3 601C872.7 601 845.3 601 818 601C790.7 601 763.3 601 736.2 601C709 601 682 601 654.8 601C627.7 601 600.3 601 573 601C545.7 601 518.3 601 491 601C463.7 601 436.3 601 409 601C381.7 601 354.3 601 327 601C299.7 601 272.3 601 245.2 601C218 601 191 601 163.8 601C136.7 601 109.3 601 82 601C54.7 601 27.3 601 13.7 601L0 601Z" fill="#000000"></path><path d="M0 235L13.7 227.5C27.3 220 54.7 205 82 208.3C109.3 211.7 136.7 233.3 163.8 224.7C191 216 218 177 245.2 186C272.3 195 299.7 252 327 269.7C354.3 287.3 381.7 265.7 409 257.3C436.3 249 463.7 254 491 262.5C518.3 271 545.7 283 573 289.2C600.3 295.3 627.7 295.7 654.8 296.2C682 296.7 709 297.3 736.2 286.3C763.3 275.3 790.7 252.7 818 254.8C845.3 257 872.7 284 886.3 297.5L900 311L900 601L886.3 601C872.7 601 845.3 601 818 601C790.7 601 763.3 601 736.2 601C709 601 682 601 654.8 601C627.7 601 600.3 601 573 601C545.7 601 518.3 601 491 601C463.7 601 436.3 601 409 601C381.7 601 354.3 601 327 601C299.7 601 272.3 601 245.2 601C218 601 191 601 163.8 601C136.7 601 109.3 601 82 601C54.7 601 27.3 601 13.7 601L0 601Z" fill="#030303"></path><path d="M0 182L13.7 186C27.3 190 54.7 198 82 221.5C109.3 245 136.7 284 163.8 282.5C191 281 218 239 245.2 222.2C272.3 205.3 299.7 213.7 327 215.5C354.3 217.3 381.7 212.7 409 222.8C436.3 233 463.7 258 491 278.8C518.3 299.7 545.7 316.3 573 302.8C600.3 289.3 627.7 245.7 654.8 222.5C682 199.3 709 196.7 736.2 216.7C763.3 236.7 790.7 279.3 818 296.2C845.3 313 872.7 304 886.3 299.5L900 295L900 601L886.3 601C872.7 601 845.3 601 818 601C790.7 601 763.3 601 736.2 601C709 601 682 601 654.8 601C627.7 601 600.3 601 573 601C545.7 601 518.3 601 491 601C463.7 601 436.3 601 409 601C381.7 601 354.3 601 327 601C299.7 601 272.3 601 245.2 601C218 601 191 601 163.8 601C136.7 601 109.3 601 82 601C54.7 601 27.3 601 13.7 601L0 601Z" fill="#060606"></path><path d="M0 221L13.7 229.8C27.3 238.7 54.7 256.3 82 255C109.3 253.7 136.7 233.3 163.8 233.5C191 233.7 218 254.3 245.2 274.8C272.3 295.3 299.7 315.7 327 319C354.3 322.3 381.7 308.7 409 312.8C436.3 317 463.7 339 491 347.7C518.3 356.3 545.7 351.7 573 348.7C600.3 345.7 627.7 344.3 654.8 327.8C682 311.3 709 279.7 736.2 257.8C763.3 236 790.7 224 818 224C845.3 224 872.7 236 886.3 242L900 248L900 601L886.3 601C872.7 601 845.3 601 818 601C790.7 601 763.3 601 736.2 601C709 601 682 601 654.8 601C627.7 601 600.3 601 573 601C545.7 601 518.3 601 491 601C463.7 601 436.3 601 409 601C381.7 601 354.3 601 327 601C299.7 601 272.3 601 245.2 601C218 601 191 601 163.8 601C136.7 601 109.3 601 82 601C54.7 601 27.3 601 13.7 601L0 601Z" fill="#090909"></path><path d="M0 398L13.7 388C27.3 378 54.7 358 82 353C109.3 348 136.7 358 163.8 343.3C191 328.7 218 289.3 245.2 288.3C272.3 287.3 299.7 324.7 327 330C354.3 335.3 381.7 308.7 409 297C436.3 285.3 463.7 288.7 491 295.2C518.3 301.7 545.7 311.3 573 307C600.3 302.7 627.7 284.3 654.8 276.2C682 268 709 270 736.2 281.5C763.3 293 790.7 314 818 323.3C845.3 332.7 872.7 330.3 886.3 329.2L900 328L900 601L886.3 601C872.7 601 845.3 601 818 601C790.7 601 763.3 601 736.2 601C709 601 682 601 654.8 601C627.7 601 600.3 601 573 601C545.7 601 518.3 601 491 601C463.7 601 436.3 601 409 601C381.7 601 354.3 601 327 601C299.7 601 272.3 601 245.2 601C218 601 191 601 163.8 601C136.7 601 109.3 601 82 601C54.7 601 27.3 601 13.7 601L0 601Z" fill="#0c0c0c"></path><path d="M0 364L13.7 364.3C27.3 364.7 54.7 365.3 82 358.3C109.3 351.3 136.7 336.7 163.8 333C191 329.3 218 336.7 245.2 352C272.3 367.3 299.7 390.7 327 400.7C354.3 410.7 381.7 407.3 409 395.2C436.3 383 463.7 362 491 357.7C518.3 353.3 545.7 365.7 573 373.7C600.3 381.7 627.7 385.3 654.8 378.5C682 371.7 709 354.3 736.2 360.8C763.3 367.3 790.7 397.7 818 409C845.3 420.3 872.7 412.7 886.3 408.8L900 405L900 601L886.3 601C872.7 601 845.3 601 818 601C790.7 601 763.3 601 736.2 601C709 601 682 601 654.8 601C627.7 601 600.3 601 573 601C545.7 601 518.3 601 491 601C463.7 601 436.3 601 409 601C381.7 601 354.3 601 327 601C299.7 601 272.3 601 245.2 601C218 601 191 601 163.8 601C136.7 601 109.3 601 82 601C54.7 601 27.3 601 13.7 601L0 601Z" fill="#0f0f0f"></path><path d="M0 421L13.7 418.7C27.3 416.3 54.7 411.7 82 402.5C109.3 393.3 136.7 379.7 163.8 374.2C191 368.7 218 371.3 245.2 370.2C272.3 369 299.7 364 327 358C354.3 352 381.7 345 409 352.2C436.3 359.3 463.7 380.7 491 391.8C518.3 403 545.7 404 573 405.3C600.3 406.7 627.7 408.3 654.8 402.5C682 396.7 709 383.3 736.2 387.3C763.3 391.3 790.7 412.7 818 412.7C845.3 412.7 872.7 391.3 886.3 380.7L900 370L900 601L886.3 601C872.7 601 845.3 601 818 601C790.7 601 763.3 601 736.2 601C709 601 682 601 654.8 601C627.7 601 600.3 601 573 601C545.7 601 518.3 601 491 601C463.7 601 436.3 601 409 601C381.7 601 354.3 601 327 601C299.7 601 272.3 601 245.2 601C218 601 191 601 163.8 601C136.7 601 109.3 601 82 601C54.7 601 27.3 601 13.7 601L0 601Z" fill="#111111"></path><path d="M0 378L13.7 380.7C27.3 383.3 54.7 388.7 82 394.7C109.3 400.7 136.7 407.3 163.8 417.5C191 427.7 218 441.3 245.2 453C272.3 464.7 299.7 474.3 327 471.5C354.3 468.7 381.7 453.3 409 434.8C436.3 416.3 463.7 394.7 491 394.3C518.3 394 545.7 415 573 420.8C600.3 426.7 627.7 417.3 654.8 412.5C682 407.7 709 407.3 736.2 401C763.3 394.7 790.7 382.3 818 389.2C845.3 396 872.7 422 886.3 435L900 448L900 601L886.3 601C872.7 601 845.3 601 818 601C790.7 601 763.3 601 736.2 601C709 601 682 601 654.8 601C627.7 601 600.3 601 573 601C545.7 601 518.3 601 491 601C463.7 601 436.3 601 409 601C381.7 601 354.3 601 327 601C299.7 601 272.3 601 245.2 601C218 601 191 601 163.8 601C136.7 601 109.3 601 82 601C54.7 601 27.3 601 13.7 601L0 601Z" fill="#131313"></path><path d="M0 410L13.7 413.7C27.3 417.3 54.7 424.7 82 429.3C109.3 434 136.7 436 163.8 435.8C191 435.7 218 433.3 245.2 442.3C272.3 451.3 299.7 471.7 327 479.5C354.3 487.3 381.7 482.7 409 471.8C436.3 461 463.7 444 491 445.7C518.3 447.3 545.7 467.7 573 481.3C600.3 495 627.7 502 654.8 488.7C682 475.3 709 441.7 736.2 428.7C763.3 415.7 790.7 423.3 818 423.8C845.3 424.3 872.7 417.7 886.3 414.3L900 411L900 601L886.3 601C872.7 601 845.3 601 818 601C790.7 601 763.3 601 736.2 601C709 601 682 601 654.8 601C627.7 601 600.3 601 573 601C545.7 601 518.3 601 491 601C463.7 601 436.3 601 409 601C381.7 601 354.3 601 327 601C299.7 601 272.3 601 245.2 601C218 601 191 601 163.8 601C136.7 601 109.3 601 82 601C54.7 601 27.3 601 13.7 601L0 601Z" fill="#151515"></path><path d="M0 537L13.7 533.3C27.3 529.7 54.7 522.3 82 511C109.3 499.7 136.7 484.3 163.8 484.5C191 484.7 218 500.3 245.2 496.8C272.3 493.3 299.7 470.7 327 473.3C354.3 476 381.7 504 409 517.3C436.3 530.7 463.7 529.3 491 518.8C518.3 508.3 545.7 488.7 573 488.5C600.3 488.3 627.7 507.7 654.8 511.7C682 515.7 709 504.3 736.2 496.3C763.3 488.3 790.7 483.7 818 486.2C845.3 488.7 872.7 498.3 886.3 503.2L900 508L900 601L886.3 601C872.7 601 845.3 601 818 601C790.7 601 763.3 601 736.2 601C709 601 682 601 654.8 601C627.7 601 600.3 601 573 601C545.7 601 518.3 601 491 601C463.7 601 436.3 601 409 601C381.7 601 354.3 601 327 601C299.7 601 272.3 601 245.2 601C218 601 191 601 163.8 601C136.7 601 109.3 601 82 601C54.7 601 27.3 601 13.7 601L0 601Z" fill="#171717"></path><path d="M0 488L13.7 500.3C27.3 512.7 54.7 537.3 82 546.7C109.3 556 136.7 550 163.8 540.8C191 531.7 218 519.3 245.2 516.3C272.3 513.3 299.7 519.7 327 519C354.3 518.3 381.7 510.7 409 509.8C436.3 509 463.7 515 491 513.8C518.3 512.7 545.7 504.3 573 504.2C600.3 504 627.7 512 654.8 523.2C682 534.3 709 548.7 736.2 552C763.3 555.3 790.7 547.7 818 536.2C845.3 524.7 872.7 509.3 886.3 501.7L900 494L900 601L886.3 601C872.7 601 845.3 601 818 601C790.7 601 763.3 601 736.2 601C709 601 682 601 654.8 601C627.7 601 600.3 601 573 601C545.7 601 518.3 601 491 601C463.7 601 436.3 601 409 601C381.7 601 354.3 601 327 601C299.7 601 272.3 601 245.2 601C218 601 191 601 163.8 601C136.7 601 109.3 601 82 601C54.7 601 27.3 601 13.7 601L0 601Z" fill="#181818"></path><path d="M0 581L13.7 578.8C27.3 576.7 54.7 572.3 82 574C109.3 575.7 136.7 583.3 163.8 581.3C191 579.3 218 567.7 245.2 561.8C272.3 556 299.7 556 327 556C354.3 556 381.7 556 409 552.5C436.3 549 463.7 542 491 546C518.3 550 545.7 565 573 572.5C600.3 580 627.7 580 654.8 577.5C682 575 709 570 736.2 570.2C763.3 570.3 790.7 575.7 818 572.5C845.3 569.3 872.7 557.7 886.3 551.8L900 546L900 601L886.3 601C872.7 601 845.3 601 818 601C790.7 601 763.3 601 736.2 601C709 601 682 601 654.8 601C627.7 601 600.3 601 573 601C545.7 601 518.3 601 491 601C463.7 601 436.3 601 409 601C381.7 601 354.3 601 327 601C299.7 601 272.3 601 245.2 601C218 601 191 601 163.8 601C136.7 601 109.3 601 82 601C54.7 601 27.3 601 13.7 601L0 601Z" fill="#1a1a1a"></path></svg>